<svg xmlns="http://www.w3.org/2000/svg" width="343.93" height="233.49" viewBox="0 0 343.93 233.49"><rect width="343.93" height="233.49" fill="#464a99"/><path d="M131.22,71.14c.58,1.85,4.4,15.92,1.66,29.62C129.17,118.62,108.31,129,89.63,130l-2.67.07c-15.89.38-29.07-3.17-33.09-9.22-3-4.33-2.77-9.42-.83-12.14a4.65,4.65,0,0,1,4.75-2.25l.4.12c4.17.84,16.79,3.6,37.53-6.12,16.64-7.93,21.16-16.47,22.85-30.37Z" transform="translate(7 5.75)" fill="#ffbd00"/><path d="M118.57,70.09c.47-3.87.72-8.16,1-13a1.35,1.35,0,0,1,.51-1,1,1,0,0,1,1.07-.29l9,.85A1.4,1.4,0,0,1,131.3,58l-.08,13.1Z" transform="translate(7 5.75)" fill="#583d26"/><path d="M151.77,70.26c.58,1.85,4.4,15.92,1.66,29.62-3.71,17.86-24.57,28.25-43.25,29.24l-2.67.07c-15.89.38-29.07-3.17-33.09-9.22-3-4.33-2.77-9.42-.83-12.14a4.65,4.65,0,0,1,4.75-2.25l.41.12c4.16.84,16.79,3.6,37.53-6.12,16.63-7.93,21.15-16.47,22.84-30.37Z" transform="translate(7 5.75)" fill="#ffd400"/><path d="M139.12,69.21c.47-3.87.72-8.16,1-13a1.35,1.35,0,0,1,.51-1,1,1,0,0,1,1.06-.29l9,.85a1.42,1.42,0,0,1,1.24,1.3l-.09,13.1Z" transform="translate(7 5.75)" fill="#583d26"/><ellipse cx="75.74" cy="171.13" rx="26.04" ry="23.1" fill="#e01936"/><path d="M70.16,139.85l-1.42-4-1.42,4-4.77-2.07,2.89,5.64a1.29,1.29,0,0,0,1.13.69H70.9a1.29,1.29,0,0,0,1.14-.69l2.89-5.64Z" transform="translate(7 5.75)" fill="#008556"/><path d="M78,172.35h0a18.64,18.64,0,1,0,37.28,0H78Z" transform="translate(7 5.75)" fill="#e25f4f"/><path d="M115.3,172.35a18.64,18.64,0,1,1-37.28,0H74.61a22,22,0,0,0,44.1,0Z" transform="translate(7 5.75)" fill="#e01936"/><path d="M90.75,172.35h0a1.57,1.57,0,0,0,.72,1.2,1.8,1.8,0,0,1,.67,1.63,1.35,1.35,0,0,0,1.69,1.69,1.81,1.81,0,0,1,1.64.68,1.55,1.55,0,0,0,1.19.72,1.57,1.57,0,0,0,1.2-.72,1.81,1.81,0,0,1,1.63-.68,1.34,1.34,0,0,0,1.69-1.69,1.81,1.81,0,0,1,.68-1.63,1.57,1.57,0,0,0,.72-1.2H90.75Z" transform="translate(7 5.75)" fill="#e83227"/><path d="M103.29,179.76l1.37,2.38h0a1.34,1.34,0,0,0,.22.31,1.31,1.31,0,0,0,1.85,0,1.25,1.25,0,0,0,.34-.88,1.21,1.21,0,0,0-.65-1.19h0L104.05,179A.56.56,0,0,0,103.29,179.76Z" transform="translate(7 5.75)" fill="#f8a792"/><path d="M99.92,181.64l.36,2.73h0a1.2,1.2,0,0,0,.87,1.06,1.18,1.18,0,0,0,.92,0,1.29,1.29,0,0,0,.71-1.7,1.21,1.21,0,0,0-.2-.33h0l-1.68-2.18A.56.56,0,0,0,99.92,181.64Z" transform="translate(7 5.75)" fill="#f8a792"/><path d="M84.18,173.6l2.66-.71a.54.54,0,0,0,.41-.54H82.5a1.38,1.38,0,0,0,1.68,1.25Z" transform="translate(7 5.75)" fill="#f8a792"/><path d="M93,184.44h0l.36-2.72a.56.56,0,0,0-1-.41l-1.67,2.18h0a1.32,1.32,0,0,0-.2.32,1.31,1.31,0,0,0,.7,1.71,1.39,1.39,0,0,0,1.8-1.08Z" transform="translate(7 5.75)" fill="#f8a792"/><path d="M97.91,184.84h0l-.71-2.66a.56.56,0,0,0-1.08,0l-.71,2.66h0a1.36,1.36,0,0,0,1.24,1.68A1.31,1.31,0,0,0,98,185.21,1.51,1.51,0,0,0,97.91,184.84Z" transform="translate(7 5.75)" fill="#f8a792"/><path d="M86.88,180.35h0a1.6,1.6,0,0,0-.31.22,1.31,1.31,0,0,0,0,1.85,1.21,1.21,0,0,0,.85.33,1.19,1.19,0,0,0,1.22-.64h0L90,179.74a.55.55,0,0,0-.76-.76Z" transform="translate(7 5.75)" fill="#f8a792"/><path d="M84.65,176a1.25,1.25,0,0,0-.37.09,1.31,1.31,0,0,0-.71,1.7,1.38,1.38,0,0,0,2,.51h0l2.18-1.68a.55.55,0,0,0-.41-1l-2.73.36Z" transform="translate(7 5.75)" fill="#f8a792"/><path d="M106.08,172.35a.53.53,0,0,0,.41.54l2.66.71h0a1.19,1.19,0,0,0,1.3-.39,1.22,1.22,0,0,0,.38-.86h-4.75Z" transform="translate(7 5.75)" fill="#f8a792"/><path d="M105.62,176.66l2.18,1.67h0a1.24,1.24,0,0,0,.33.21,1.3,1.3,0,0,0,1.7-.71,1.21,1.21,0,0,0,0-.95,1.18,1.18,0,0,0-1.06-.84h0l-2.73-.36A.56.56,0,0,0,105.62,176.66Z" transform="translate(7 5.75)" fill="#f8a792"/><path d="M190.69,42.82h.11A1.29,1.29,0,0,0,192,41.44c-.38-4.51-3.48-13.17-12.5-13.65a1.28,1.28,0,1,0-.14,2.55,9.56,9.56,0,0,1,8.4,5.68,17.23,17.23,0,0,1,1.69,5.63A1.28,1.28,0,0,0,190.69,42.82Z" transform="translate(7 5.75)" fill="#583d26"/><path d="M173.65,62c1.28-4.74,2.29-21.5,16.5-21.5S205.4,57.3,206.68,62,214,73.33,214,81.89s-4.71,19.67-23.83,19.67-23.82-11.11-23.82-19.67S172.38,66.77,173.65,62Z" transform="translate(7 5.75)" fill="#c78530"/><path d="M156.91,129.12c-2.7-13.72,16.5-13.14,19.86-12.94a.35.35,0,0,1,.32.5C175.88,119.76,168.52,136.89,156.91,129.12Z" transform="translate(7 5.75)" fill="#00b272"/><path d="M149.27,128.11c-1.2-.79-1.29-1.45-.1-2.25l2.43-1.63a1.72,1.72,0,0,1,2.35.07,21.13,21.13,0,0,1,7.92,13.84,7.72,7.72,0,0,1-4.87.41A19.3,19.3,0,0,0,149.27,128.11Z" transform="translate(7 5.75)" fill="#583d26"/><path d="M130.4,161.2c-7.16-20.21,10.1-33.44,26.2-23.76a4.91,4.91,0,0,0,4.76,0c16.08-9.72,33.37,3.48,26.25,23.7-3.91,11.11-12.59,29.35-27.56,22.05a2.63,2.63,0,0,0-2,0C143.05,190.52,134.33,172.3,130.4,161.2Z" transform="translate(7 5.75)" fill="#ff4c4d"/><path d="M105.06,59.2c-.69-3.25-1.34-6.31-.41-9.63,2.51-8.94-.12-16.35-6.71-19.78l-.58-.28a17,17,0,0,0-2-.79l-.23-.07c-.31-.1-.63-.19-.94-.26L94,28.33a14.86,14.86,0,0,0-2.1-.36l-.64-.06c-7.42-.5-13.51,4.47-16,13.4-.93,3.32-3.08,5.6-5.35,8-2.65,2.82-5.4,5.73-6.79,10.7-3,10.74,4,22.14,15.65,25.4h0c11.64,3.27,23.56-2.81,26.57-13.55C106.69,66.89,105.86,63,105.06,59.2Z" transform="translate(7 5.75)" fill="#52712d"/><path d="M79.59,58.71C77,54.22,73.81,52,70.68,49.82,68,48,65.46,46.21,63.76,43.21c-3.42-6-8.07-9.52-12.95-10.08L49.64,31l-2.5,1.41-.12.07c-.27.14-.53.28-.78.44l-.19.11a14.07,14.07,0,0,0-1.59,1.16l-.46.39c-5.08,4.64-5.71,11.9-2.49,21.21,2.13,6.19-2.9,12.54,2.89,22.84A20.22,20.22,0,0,0,72,86.29l6.43-3.61-.7-1.25A20.26,20.26,0,0,0,79.59,58.71Z" transform="translate(7 5.75)" fill="#52712d"/><path d="M77.11,46.2c-2.69-1.85-5.22-3.61-6.92-6.61C65.61,31.52,58.81,28,52.22,30l-.57.19a13.66,13.66,0,0,0-1.81.77l-.2.1q-.39.21-.78.45l-.19.11a14.07,14.07,0,0,0-1.59,1.16l-.46.39c-5.08,4.64-5.54,12.28-1,20.36,1.7,3,1.9,6.07,2.12,9.33.25,3.79.51,7.72,3.06,12.22A20.25,20.25,0,0,0,78.4,82.68h0A20.26,20.26,0,0,0,86,55.1C83.47,50.6,80.24,48.37,77.11,46.2Z" transform="translate(7 5.75)" fill="#aed254"/><path d="M73.76,74.5a10.83,10.83,0,1,1,4.08-14.76A10.82,10.82,0,0,1,73.76,74.5Z" transform="translate(7 5.75)" fill="#5d5349"/><ellipse cx="95.97" cy="29.44" rx="1.01" ry="2.36" transform="translate(49.23 119.97) rotate(-74.68)" fill="#5d5349"/><path d="M270,58.94a24.47,24.47,0,1,1-48.94,0V46.64H270Z" transform="translate(7 5.75)" fill="#a05402"/><ellipse cx="252.55" cy="52.38" rx="24.47" ry="8.6" fill="#02a365"/><ellipse cx="252.55" cy="52.38" rx="13.09" ry="4.6" fill="#01774a"/><ellipse cx="252.55" cy="52.38" rx="6.38" ry="2.24" fill="#f4ebdc"/><path d="M291,70.18a22.32,22.32,0,0,1-40.89-17.89L254.56,42,295.45,59.9Z" transform="translate(7 5.75)" fill="#b26400"/><ellipse cx="275.01" cy="50.95" rx="7.84" ry="22.32" transform="translate(125.09 288.22) rotate(-66.37)" fill="#00b272"/><ellipse cx="275.01" cy="50.95" rx="4.2" ry="11.94" transform="translate(125.09 288.22) rotate(-66.37)" fill="#008556"/><ellipse cx="275.01" cy="50.95" rx="2.04" ry="5.82" transform="translate(125.09 288.22) rotate(-66.37)" fill="#fff8ea"/><ellipse cx="244.36" cy="143.72" rx="47.15" ry="39.49" transform="translate(-20.04 231.38) rotate(-47.26)" fill="#aed254"/><path d="M204.77,144.08c1.22-1.77,2.32-3.26,3.76-3.62.31,0,.63-.12,1-.12a9.83,9.83,0,0,0,2.29-.45c2.61-1,3.67-3.55,4.55-5.54.25-.56.5-1.13.74-1.62,1.59-3,4.71-4.75,7.91-6.48a35.48,35.48,0,0,0,7.09-4.79,32.22,32.22,0,0,0,3.76-4.54c1.69-2.22,3.2-4.32,5.38-5.47a17.87,17.87,0,0,1,2-.8c.82-.32,1.56-.64,2.39-1a21.45,21.45,0,0,0,5.63-4.74c1.87-2,3.65-3.87,5.86-4.32a1.94,1.94,0,0,0,.42-.17,40.52,40.52,0,0,0-7.33-.37c-.64.61-1.27,1.23-1.87,1.91a18.35,18.35,0,0,1-4.57,3.93,18.71,18.71,0,0,1-2,.8c-.75.33-1.57.65-2.4,1-2.93,1.54-4.83,4.11-6.71,6.61a32.8,32.8,0,0,1-3.29,4,30.49,30.49,0,0,1-6.31,4.24c-3.65,2.12-7.53,4.26-9.59,8.25a19.1,19.1,0,0,0-.87,1.91c-.65,1.56-1.28,3-2.26,3.34a10.55,10.55,0,0,1-1.25.17c-.47.07-1,.13-1.57.26a9,9,0,0,0-5,3.73,46.77,46.77,0,0,0-1.3,7.94A18.72,18.72,0,0,0,204.77,144.08Zm65.77-12.43a23.46,23.46,0,0,0-4.37,3.2,20.05,20.05,0,0,0-3.31,5,13.21,13.21,0,0,1-3,4.44,15.81,15.81,0,0,1-4.53,2.34,13,13,0,0,0-9.38,8.82c-.26.57-.49,1.06-.73,1.55a20.87,20.87,0,0,1-8.09,8.81c-.51.3-1,.52-1.52.81A13.8,13.8,0,0,0,230,171a18.24,18.24,0,0,0-1.42,2.88,3.24,3.24,0,0,1-.28.79,18.74,18.74,0,0,1-8.31,9,35,35,0,0,0,4.61,1.92,22.28,22.28,0,0,0,7.46-9.36c.13-.28.26-.56.38-.85a10.11,10.11,0,0,1,1-2.12,12.17,12.17,0,0,1,4.21-3.15,18.09,18.09,0,0,1,1.61-.94,25.38,25.38,0,0,0,9.6-10.46l.75-1.7a14.29,14.29,0,0,1,2.38-4,14.15,14.15,0,0,1,4.8-2.6,17.11,17.11,0,0,0,5.71-3,18.43,18.43,0,0,0,4-5.57,17.79,17.79,0,0,1,2.61-4,17.35,17.35,0,0,1,3.57-2.58c2.4-1.49,5.05-3.17,6.19-6.18a15.74,15.74,0,0,0,.58-2.49,7,7,0,0,1,.3-1.24c.56-2.16,2.25-4,4.32-5.56a34.57,34.57,0,0,0-2-3.69c-2.92,2.14-5.38,4.64-6.24,8.11-.11.59-.2,1.11-.29,1.63a11.68,11.68,0,0,1-.37,1.69C274.39,129.26,272.6,130.33,270.54,131.65Zm8.6,12.4a15.21,15.21,0,0,0-1.09,2.32,14,14,0,0,1-.87,1.91c-1.28,2.14-3.44,3.6-5.7,5.19a31.88,31.88,0,0,0-4.67,3.61,34.42,34.42,0,0,0-5.09,6.9c-2,3.23-3.91,6.26-6.91,7.72-.5.22-1.08.5-1.65.7-2,.79-4.58,1.8-5.64,4.36A8.64,8.64,0,0,0,247,179l-.18,1c-.4,1.45-1.95,2.48-3.75,3.62a16.25,16.25,0,0,0-4.5,3.83,44.78,44.78,0,0,0,7.81-1.05c1.84-1.24,3.68-2.77,4.35-5.19a10.52,10.52,0,0,0,.28-1.63,3.86,3.86,0,0,1,.22-1.26c.48-1,1.88-1.58,3.43-2.15.65-.26,1.3-.46,2-.8,4.08-2,6.33-5.69,8.55-9.27a29.69,29.69,0,0,1,4.42-6.09,32.34,32.34,0,0,1,4.13-3.17c2.52-1.78,5.2-3.6,6.85-6.51.46-.84.75-1.63,1.11-2.41s.61-1.34.86-1.9a20.28,20.28,0,0,1,4.14-4.47l.52-.47a45.78,45.78,0,0,0,.28-5.83,27.26,27.26,0,0,1-3.33,3.27A21.55,21.55,0,0,0,279.14,144.05ZM254.36,116.4a21.65,21.65,0,0,1-2.75,3.49,17.29,17.29,0,0,1-4.16,2.48,18.1,18.1,0,0,0-5.69,3.74,18.53,18.53,0,0,0-3.26,5.61,13.15,13.15,0,0,1-2.8,4.7,14.59,14.59,0,0,1-4.12,2.18c-.57.21-1.14.41-1.72.69A25.37,25.37,0,0,0,219,148.54c-.32.56-.64,1-1,1.59-1,1.66-1.94,3.25-3.3,4.08a9.93,9.93,0,0,1-2.15.92c-.32.1-.57.21-.89.3a22.76,22.76,0,0,0-9.21,6.7,36.31,36.31,0,0,0,1.59,4.57,18.49,18.49,0,0,1,9-7.51,6.52,6.52,0,0,0,.81-.32,18,18,0,0,0,2.9-1.32c2.23-1.37,3.51-3.51,4.69-5.44a13.59,13.59,0,0,1,.86-1.46,21.56,21.56,0,0,1,9.05-7.73c.49-.22,1.06-.42,1.56-.64a17.19,17.19,0,0,0,5.32-3,16.45,16.45,0,0,0,3.81-6.12,15,15,0,0,1,2.53-4.44,15.54,15.54,0,0,1,4.54-2.88,20.33,20.33,0,0,0,5.12-3.15,22.18,22.18,0,0,0,3.41-4.21c1.42-2,2.55-3.75,4.36-4.5a8,8,0,0,1,1.74-.31,13.87,13.87,0,0,0,1.64-.25c3.64-.78,6.33-3.28,8.57-6.19a33.71,33.71,0,0,0-3.33-2.27c-1.79,2.33-3.85,4.3-6.29,4.84-.4.09-.78.1-1.25.17a13.93,13.93,0,0,0-2.45.49C257.65,111.48,255.9,114.07,254.36,116.4Z" transform="translate(7 5.75)" fill="#c5e0a6"/></svg>